<?xml version="1.0" encoding="UTF-8"?>
<svg xmlns="http://www.w3.org/2000/svg" width="269" height="43" viewBox="0 0 269 43" fill="none">
  <path d="M21 0.5C9.42109 0.5 0 9.92109 0 21.5C0 33.0789 9.42109 42.5 21 42.5C32.5789 42.5 42 33.0789 42 21.5C42 9.92109 32.5789 0.5 21 0.5ZM21 41.3137C10.0754 41.3137 1.18301 32.4246 1.18301 21.5C1.18301 10.5754 10.0754 1.68631 21 1.68631C31.9246 1.68631 40.8137 10.5754 40.8137 21.5C40.8137 32.4246 31.9246 41.3137 21 41.3137Z" fill="black"></path>
  <path d="M33.3389 12.6408C31.9411 11.3719 30.0179 10.6812 27.5825 10.5623V11.6726C29.3504 11.8047 30.7019 12.3632 31.6272 13.3512C32.6978 14.4913 33.2332 16.2261 33.2332 18.5558C33.2332 20.8855 32.6945 22.6236 31.614 23.7736C30.5334 24.9235 28.9043 25.4985 26.7233 25.4985H25.124L25.1174 25.4919H22.2821L22.2722 25.4985L20.9174 25.6142V26.5956H22.7282V36.0762L22.4936 36.4165L20.9174 36.5322V37.5136H26.6308V36.5322L25.124 36.4165L24.8332 36.0762V26.5956H26.8192C28.2533 26.5956 29.4099 26.48 30.2889 26.2519C31.1679 26.0239 31.9609 25.6439 32.6615 25.1119C33.6495 24.3651 34.3964 23.4398 34.8986 22.3361C35.4009 21.2324 35.6521 19.9734 35.6521 18.5558C35.6521 16.008 34.8821 14.0353 33.3389 12.6375V12.6408Z" fill="black"></path>
  <path d="M22.682 11.9798V24.4642H24.8332V11.9798L25.124 11.6395H26.7234C26.7498 11.6395 26.773 11.6395 26.8027 11.6395V10.5391H21.5122V11.276L16.9685 23.1952L12.4711 11.1834V10.5424H7.38884V11.5007L8.9783 11.6395L9.28231 11.9798V24.9731L8.84943 25.4291L7.34589 25.6571L7.41198 26.5989H12.4711V25.6174L11.0106 25.4291L10.5777 24.9731V11.9104L16.0334 26.5989H17.0611L22.6258 11.9369L22.682 11.9831V11.9798Z" fill="black"></path>
  <path d="M57.8169 14.4635C57.6332 17.3545 57.3716 23.5817 57.3151 26.9463C57.2868 29.5757 57.8381 30.2825 59.8102 30.4168V30.6289C58.6298 30.5794 58.1279 30.5511 56.9192 30.5511C55.7105 30.5511 55.1309 30.5794 54 30.6289V30.4168C55.9438 30.2331 56.4669 29.5262 56.7072 26.7908C56.9687 23.3485 57.1525 19.5669 57.3363 15.439C57.414 13.3891 57.1242 12.8378 54.7634 12.5197V12.3359C55.8661 12.3642 56.58 12.3854 57.5978 12.3854C58.4389 12.3854 59.3861 12.3571 60.3545 12.3359C61.959 17.0152 63.6625 21.6874 65.267 25.7376C66.6877 22.0055 68.4195 17.4888 70.13 12.3359C70.9712 12.3854 71.7558 12.3854 72.5474 12.3854C73.4946 12.3854 74.6255 12.3571 75.4101 12.3359V12.5197C73.2825 12.6257 73.127 13.6789 73.127 15.5662C73.1765 19.6941 73.3108 25.2074 73.4451 27.2573C73.5794 29.5404 73.8904 30.2543 75.8908 30.4098V30.6218C74.5478 30.5723 73.3179 30.5441 72.0526 30.5441C70.6107 30.5441 69.3172 30.5723 67.9247 30.6218V30.4098C69.9251 30.2543 70.2643 29.3849 70.2643 27.1795C70.2643 24.3946 70.1583 17.404 70.0311 14.202C68.4053 18.5137 65.7759 25.4972 64.0442 30.5158L63.8109 30.6713C62.1004 25.7588 59.7678 19.5598 57.824 14.4635H57.8169Z" fill="black"></path>
  <path d="M77.0995 30.4168C79.227 30.3108 79.6511 29.4697 79.6511 26.6847V16.2023C79.6511 13.3114 79.2058 12.654 77.0995 12.548V12.3359H83.8498C85.32 12.3359 87.0305 12.4914 88.317 12.9933C91.625 14.2303 93.6536 16.9869 93.6536 21.4824C93.6536 25.9779 91.6603 28.4165 89.1369 29.6535C87.8222 30.3108 86.1187 30.6289 84.3304 30.6289H77.1065V30.4168H77.0995ZM90.077 21.5884C90.077 17.8846 89.3701 14.9442 87.5536 13.7355C86.4792 12.9721 85.2705 12.6328 82.8531 12.6328C82.8248 13.3679 82.8036 15.2622 82.8036 16.3366V26.9533C82.8036 29.6322 83.2772 30.3179 85.1433 30.2896C88.2675 30.2613 90.0841 26.6635 90.0841 21.5955L90.077 21.5884Z" fill="black"></path>
  <path d="M99.9232 30.417C102.051 30.311 102.475 29.4981 102.475 26.7132V16.1742C102.475 13.2833 102.001 12.6542 99.9232 12.5481V12.3361C101.733 12.3856 103.995 12.4138 106.412 12.3856C108.589 12.3856 110.356 12.3573 112.505 12.2795C112.872 12.7814 112.872 13.7003 112.844 14.7747L112.738 17.0366H112.554C111.819 13.8275 110.611 12.6754 105.698 12.6754C105.67 13.0429 105.62 14.6687 105.62 15.326V21.1574H107.013C110.321 21.1574 110.872 20.3163 111.24 18.5845H111.423C111.395 19.9275 111.395 23.0235 111.423 24.4159H111.211C110.922 22.3166 110.293 21.525 106.985 21.525H105.62V26.494C105.62 29.3285 105.854 30.2544 108.434 30.3816V30.6149C106.808 30.5654 105.755 30.5372 104.15 30.5372C102.44 30.5372 101.365 30.5654 99.9232 30.6149V30.4029V30.417Z" fill="black"></path>
  <path d="M113.968 21.4541C113.968 15.7005 117.255 12.0249 121.927 12.0249C126.599 12.0249 129.886 15.7287 129.886 21.4541C129.886 27.1795 126.599 30.9399 121.927 30.9399C117.255 30.9399 113.968 27.1795 113.968 21.4541ZM126.239 21.4541C126.239 16.174 125.08 12.3076 121.927 12.3076C118.775 12.3076 117.615 16.167 117.615 21.4541C117.615 26.7413 118.775 30.6501 121.927 30.6501C125.08 30.6501 126.239 26.7059 126.239 21.4541Z" fill="black"></path>
  <path d="M130.402 30.4168C132.579 30.3108 132.954 29.4414 132.954 26.713V16.0963C132.954 13.4174 132.586 12.654 130.402 12.548V12.3359H137.315C141.231 12.3359 144.461 13.4386 144.327 17.3262C144.249 19.27 142.885 20.7685 140.913 21.4753C141.57 22.8678 142.333 24.3663 143.281 25.886C145.302 29.0951 146.567 30.2755 148.299 30.4027L148.271 30.6148C147.642 30.7491 146.829 30.7985 146.172 30.7985C144.094 30.7985 142.864 30.1412 141.888 29.088C141.181 28.3246 140.496 27.1937 139.789 25.8789C139.103 24.6208 138.531 23.3838 138.057 22.2529C137.428 22.2529 136.665 22.2246 136.113 22.1468V26.6141C136.113 29.3495 136.453 30.2684 138.665 30.3956V30.6077C137.195 30.5582 136.014 30.5299 134.488 30.5299C132.961 30.5299 131.964 30.5582 130.416 30.6077V30.3956L130.402 30.4168ZM139.52 21.1431C140.573 20.4363 141.097 19.2276 141.097 17.4393C141.097 14.4989 139.676 12.5551 136.156 12.6328C136.127 13.4739 136.106 14.3928 136.106 15.6581V21.9136C137.576 21.9631 138.736 21.7015 139.52 21.1502V21.1431Z" fill="black"></path>
  <path d="M152.971 30.4168C155.127 30.3108 155.523 29.4414 155.523 26.713V16.2023C155.523 13.4174 155.156 12.654 152.971 12.548V12.3359H159.722C162.98 12.3359 166.635 13.2266 166.635 17.3828C166.635 20.5635 164.062 22.4013 161.298 22.5568C160.301 22.6346 159.616 22.5568 158.669 22.4508V26.5999C158.669 29.3354 158.958 30.3037 161.503 30.4098V30.6218C159.693 30.5723 158.69 30.5441 157.064 30.5441C155.537 30.5441 154.569 30.5723 152.964 30.6218V30.4098L152.971 30.4168ZM163.404 17.3828C163.404 14.4918 162.146 12.548 158.725 12.6257C158.697 13.4174 158.676 14.4635 158.676 15.545V22.2175C161.906 22.3235 163.404 20.4575 163.404 17.3828Z" fill="black"></path>
  <path d="M164.875 30.3886C166.218 30.2543 166.818 29.5475 167.815 27.2856C169.547 23.1859 173.046 14.7816 174.07 12.1522L174.283 12.0745C175.046 14.5201 177.937 22.2671 179.591 26.6282C180.694 29.4909 181.033 30.2048 182.482 30.4098V30.6219C181.273 30.5724 179.958 30.5441 178.672 30.5441C177.145 30.5441 175.887 30.5441 174.728 30.6219V30.4098C176.594 30.2543 177.117 29.5192 176.544 27.5189C176.205 26.3102 175.597 24.5996 175.23 23.497H169.872C169.66 23.9423 169.059 25.5751 168.614 27.017C167.829 29.6182 168.663 30.325 170.635 30.4098V30.6219C169.688 30.5724 169.031 30.5441 167.695 30.5441C166.62 30.5441 165.857 30.5724 164.882 30.6219V30.3886H164.875ZM175.095 23.1647C174.728 22.0055 173.102 17.5666 172.706 16.4144L170.027 23.1647H175.095Z" fill="black"></path>
  <path d="M184.963 30.4168C187.119 30.2825 187.564 29.4979 187.564 26.7413V16.7607C187.564 15.5803 187.536 12.7388 187.536 12.7388C183.91 12.7388 182.758 13.9758 181.832 17.5241L181.62 17.4958L181.726 14.4211C181.775 13.4739 181.881 12.6328 182.171 12.1875C182.616 12.449 183.592 12.4773 184.221 12.4773H193.996C194.703 12.4773 195.65 12.449 196.173 12.1875C196.491 12.6328 196.569 13.5022 196.619 14.4211L196.725 17.4958L196.513 17.5241C195.622 13.9758 194.491 12.7671 190.808 12.7388C190.808 12.7388 190.78 15.5732 190.78 16.7607V26.7696C190.78 29.5545 191.303 30.2896 193.381 30.4239V30.636C191.805 30.5582 190.596 30.5582 189.154 30.5582C187.79 30.5582 186.581 30.5582 184.949 30.636V30.4239L184.963 30.4168Z" fill="black"></path>
  <path d="M203.433 26.7625C203.433 29.5757 203.956 30.332 205.956 30.4169V30.6289C204.641 30.5794 203.249 30.5511 201.828 30.5511C200.485 30.5511 199.199 30.5511 197.728 30.6289V30.4169C199.828 30.3108 200.28 29.498 200.28 26.7413V16.2094C200.28 13.474 199.941 12.6611 197.728 12.5551V12.343C199.093 12.3925 200.485 12.4208 201.828 12.4208C203.171 12.4208 204.641 12.3925 205.956 12.343V12.5551C203.8 12.6611 203.433 13.474 203.433 16.2094V26.7696V26.7625Z" fill="black"></path>
  <path d="M207.158 30.417C209.285 30.311 209.709 29.4981 209.709 26.7132V16.1742C209.709 13.2833 209.236 12.6542 207.158 12.5481V12.3361C208.762 12.3856 211.285 12.3856 213.569 12.3856C215.512 12.3856 217.35 12.3573 219.478 12.2795C219.845 12.7814 219.874 13.778 219.817 14.8524C219.817 15.0079 219.739 17.0366 219.739 17.0366H219.527C218.792 13.8063 217.612 12.7531 213.378 12.7036C213.222 12.7036 213.06 12.6754 212.932 12.6754C212.904 13.0429 212.855 14.5909 212.855 15.1988V20.9807H213.724C217.583 20.9312 217.979 20.2739 218.347 18.429H218.531C218.502 19.9558 218.502 22.7125 218.531 24.1544H218.318C218.057 21.9986 217.583 21.32 213.717 21.32H212.848V27.2574C212.848 29.7031 213.243 30.1979 215.583 30.1979C218.34 30.1979 219.944 28.4096 220.835 25.3136H221.019C220.99 25.7377 220.863 27.8653 220.835 28.2541C220.729 29.6183 220.517 30.2261 220.128 30.622C218 30.5725 216.24 30.5442 214.24 30.5442C211.745 30.5442 209.646 30.5159 207.143 30.622V30.4099L207.158 30.417Z" fill="black"></path>
  <path d="M236.661 30.9116C233.113 25.8436 228.596 19.7224 225.019 15.0431C225.019 18.5349 225.019 23.3697 225.125 26.9463C225.203 29.5474 225.705 30.3108 227.91 30.4169V30.6289C226.751 30.5794 226.101 30.5511 224.892 30.5511C223.683 30.5511 222.998 30.5794 221.952 30.6289V30.4169C223.867 30.2331 224.475 29.3919 224.553 27.0028C224.602 23.3767 224.631 20.3586 224.602 16.2306C224.602 13.8132 223.917 12.7601 221.846 12.5551V12.343C222.715 12.3713 223.945 12.3925 224.786 12.3925C225.521 12.3925 226.285 12.3925 227.02 12.343C230.094 16.7608 233.431 21.3057 236.399 25.1368C236.449 21.85 236.449 18.3299 236.399 15.5238C236.371 13.3185 235.799 12.6045 233.614 12.5551V12.343C234.378 12.3713 235.191 12.3925 236.555 12.3925C237.764 12.3925 238.499 12.3642 239.312 12.343V12.5551C237.396 12.6045 237.05 13.474 236.972 15.3117C236.894 17.4393 236.816 23.8786 236.788 25.7447C236.788 28.5791 236.838 29.9998 236.894 30.9753L236.661 30.9258V30.9116Z" fill="black"></path>
  <path d="M243.553 30.4168C245.708 30.2825 246.154 29.4979 246.154 26.7413V16.7607C246.154 15.5803 246.125 12.7388 246.125 12.7388C242.499 12.7388 241.34 13.9758 240.421 17.5241L240.209 17.4958L240.315 14.4211C240.365 13.4739 240.471 12.6328 240.761 12.1875C241.206 12.449 242.181 12.4773 242.81 12.4773H252.586C253.293 12.4773 254.24 12.449 254.763 12.1875C255.081 12.6328 255.159 13.5022 255.208 14.4211L255.314 17.4958L255.102 17.5241C254.212 13.9758 253.081 12.7671 249.398 12.7388C249.398 12.7388 249.37 15.5732 249.37 16.7607V26.7696C249.37 29.5545 249.893 30.2896 251.971 30.4239V30.636C250.395 30.5582 249.186 30.5582 247.744 30.5582C246.38 30.5582 245.171 30.5582 243.538 30.636V30.4239L243.553 30.4168Z" fill="black"></path>
  <path d="M258.453 30.4168C257.195 30.021 256.848 29.4414 256.77 28.473C256.721 27.95 256.721 27.3421 256.926 24.4016H257.138C257.845 28.6851 259.845 30.6783 262.079 30.6783C264.312 30.6783 265.655 28.89 265.655 26.6847C265.655 24.6066 264.341 23.4545 262.164 22.7971C259.485 22.0337 256.933 20.8533 256.961 17.2272C256.961 14.0182 259.273 12.0249 263.033 12.0249C264.136 12.0249 265.132 12.1592 265.973 12.4207C266.97 12.7105 267.338 13.2124 267.444 14.1808C267.521 14.7604 267.493 15.6227 267.472 17.8563H267.26C266.709 15.2269 265.26 12.2864 262.927 12.2864C260.594 12.2864 259.697 14.0959 259.697 15.962C259.697 18.2451 261.118 19.2488 263.083 19.8496C266.574 20.8462 268.334 22.2953 268.334 25.37C268.334 28.784 265.839 30.9399 261.973 30.9399C260.658 30.9399 259.372 30.7278 258.453 30.4168Z" fill="black"></path>
</svg>
