<svg width="100" height="100" viewBox="0 0 100 100" fill="none" xmlns="http://www.w3.org/2000/svg">
<rect width="100" height="100" fill="#1E1E1E" style="fill:#1E1E1E;fill:color(display-p3 0.1176 0.1176 0.1176);fill-opacity:1;"/>
<g id="Expert Opinion Request ( MD For Patients )" filter="url(#filter0_d_0_1)">
<rect width="1920" height="1080" transform="translate(-910 -215)" fill="#F0F0F0" style="fill:#F0F0F0;fill:color(display-p3 0.9412 0.9412 0.9412);fill-opacity:1;"/>
<rect id="Rectangle 14" x="-585" y="-83" width="1270" height="721" fill="white" style="fill:white;fill-opacity:1;"/>
<g id="new_releases">
<mask id="mask0_0_1" style="mask-type:alpha" maskUnits="userSpaceOnUse" x="0" y="0" width="100" height="100">
<rect id="Bounding box" width="100" height="100" fill="#D9D9D9" style="fill:#D9D9D9;fill:color(display-p3 0.8510 0.8510 0.8510);fill-opacity:1;"/>
</mask>
<g mask="url(#mask0_0_1)">
<path id="new_releases_2" d="M36.7427 91.1049L29.3073 78.5737L15.1885 75.4799L16.5667 60.9456L7 49.9997L16.5667 39.0539L15.1885 24.5195L29.3073 21.4258L36.7427 8.89453L50.0281 14.5352L63.3135 8.89453L70.749 21.4258L84.8677 24.5195L83.4896 39.0539L93.0563 49.9997L83.4896 60.9456L84.8677 75.4799L70.749 78.5737L63.3135 91.1049L50.0281 85.4643L36.7427 91.1049ZM39.4031 83.1247L50.0281 78.6216L60.7813 83.1247L66.6948 73.1247L78.1531 70.4966L77.1115 58.7497L84.8198 49.9997L77.1115 41.1216L78.1531 29.3747L66.6948 26.8747L60.6531 16.8747L50.0281 21.3779L39.275 16.8747L33.3615 26.8747L21.9031 29.3747L22.9448 41.1216L15.2365 49.9997L22.9448 58.7497L21.9031 70.6247L33.3615 73.1247L39.4031 83.1247ZM45.6531 63.3487L67.7521 41.2497L63.3615 36.731L45.6531 54.4393L36.6948 45.6091L32.3042 49.9997L45.6531 63.3487Z" fill="#159400" style="fill:#159400;fill:color(display-p3 0.0810 0.5786 0.0000);fill-opacity:1;"/>
</g>
</g>
</g>
<defs>
<filter id="filter0_d_0_1" x="-914" y="-215" width="1928" height="1088" filterUnits="userSpaceOnUse" color-interpolation-filters="sRGB">
<feFlood flood-opacity="0" result="BackgroundImageFix"/>
<feColorMatrix in="SourceAlpha" type="matrix" values="0 0 0 0 0 0 0 0 0 0 0 0 0 0 0 0 0 0 127 0" result="hardAlpha"/>
<feOffset dy="4"/>
<feGaussianBlur stdDeviation="2"/>
<feComposite in2="hardAlpha" operator="out"/>
<feColorMatrix type="matrix" values="0 0 0 0 0 0 0 0 0 0 0 0 0 0 0 0 0 0 0.25 0"/>
<feBlend mode="normal" in2="BackgroundImageFix" result="effect1_dropShadow_0_1"/>
<feBlend mode="normal" in="SourceGraphic" in2="effect1_dropShadow_0_1" result="shape"/>
</filter>
</defs>
</svg>
